<?xml version="1.0" encoding="utf-8"?>
<!-- Generator: Adobe Illustrator 17.0.0, SVG Export Plug-In . SVG Version: 6.00 Build 0)  -->
<!DOCTYPE svg PUBLIC "-//W3C//DTD SVG 1.1//EN" "http://www.w3.org/Graphics/SVG/1.1/DTD/svg11.dtd">
<svg version="1.1" id="Capa_1" xmlns="http://www.w3.org/2000/svg" xmlns:xlink="http://www.w3.org/1999/xlink" x="0px" y="0px"
	 width="400px" height="110px" viewBox="0 0 400 110" enable-background="new 0 0 400 110" xml:space="preserve">
<g>
	<g>
		<path fill="#00599D" d="M40.534,62.438c-3.071,1.16-9.007,2.593-14.944,2.593c-7.984,0-14.057-2.047-18.493-6.415
			C2.593,54.181,0,47.016,0,38.691c0-17.742,11.805-27.227,26.886-27.227c5.323,0,9.758,0.955,12.283,2.184l-2.115,8.325
			c-2.388-1.092-5.391-1.911-10.031-1.911c-9.349,0-16.445,5.732-16.445,18.424c0,12.146,6.483,18.288,15.149,18.288
			c2.457,0,4.299-0.341,5.186-0.751V43.195h-7.575v-7.984h17.196V62.438z"/>
		<path fill="#00599D" d="M83.113,64.485H72.536l-3.753-13.852H54.725l-3.617,13.852H40.873L55.749,12.01h12.692L83.113,64.485z
			 M67.349,42.99l-3.139-11.942c-0.819-3.275-1.706-7.506-2.388-10.713h-0.205c-0.682,3.275-1.569,7.575-2.32,10.645l-3.139,12.01
			H67.349z"/>
		<path fill="#00599D" d="M109.588,39.715c3.685,1.433,5.732,4.981,6.96,10.304c1.501,6.21,2.866,12.488,3.89,14.467h-10.372
			c-0.751-1.501-2.047-6.073-3.275-12.419c-1.365-6.756-3.48-8.871-8.257-8.871h-3.412v21.29H85.09V12.692
			c3.48-0.614,8.393-1.092,13.511-1.092c6.619,0,19.994,0.819,19.994,14.876c0,6.414-4.094,11.123-9.008,13.034V39.715z
			 M99.284,35.689c5.732,0,9.212-3.344,9.212-8.325c0-6.756-5.05-8.052-8.735-8.052c-2.252,0-3.821,0.136-4.64,0.409v15.968H99.284z
			"/>
		<path fill="#00599D" d="M155.648,63.189c-1.979,0.955-6.21,1.979-11.6,1.979c-15.763,0-24.498-10.713-24.498-26.272
			c0-18.356,11.805-27.636,25.726-27.636c5.664,0,9.349,1.16,10.85,1.979l-1.979,8.189c-2.047-0.887-4.777-1.706-8.393-1.706
			c-8.666,0-15.627,5.937-15.627,18.629c0,11.874,6.073,18.22,15.558,18.22c3.139,0,6.483-0.614,8.53-1.501L155.648,63.189z"/>
		<path fill="#00599D" d="M158.172,12.01h10.099v52.475h-10.099V12.01z M165.132,0h10.713l-9.553,9.212h-7.847L165.132,0z"/>
		<path fill="#00599D" d="M212.079,64.485h-10.577l-3.753-13.852h-14.057l-3.617,13.852h-10.236l14.876-52.475h12.692
			L212.079,64.485z M196.316,42.99l-3.139-11.942c-0.819-3.275-1.706-7.506-2.388-10.713h-0.205
			c-0.682,3.275-1.569,7.575-2.32,10.645l-3.139,12.01H196.316z"/>
		<path fill="#00599D" d="M214.056,64.485V12.01h28.114v8.461h-18.015v13.852h16.787v8.257h-16.787v21.904H214.056z"/>
		<path fill="#00599D" d="M275.196,64.485h-29.342V12.01h28.251v8.461h-18.151v12.692h17.128v8.257h-17.128v14.603h19.243V64.485z
			 M261.207,0h10.782l-9.622,9.212h-7.847L261.207,0z"/>
		<path fill="#00599D" d="M302.627,39.715c3.685,1.433,5.732,4.981,6.96,10.304c1.501,6.21,2.866,12.488,3.89,14.467h-10.372
			c-0.751-1.501-2.047-6.073-3.275-12.419c-1.365-6.756-3.48-8.871-8.257-8.871h-3.412v21.29h-10.031V12.692
			c3.48-0.614,8.393-1.092,13.511-1.092c6.619,0,19.994,0.819,19.994,14.876c0,6.414-4.094,11.123-9.007,13.034V39.715z
			 M292.323,35.689c5.732,0,9.212-3.344,9.212-8.325c0-6.756-5.05-8.052-8.734-8.052c-2.252,0-3.821,0.136-4.64,0.409v15.968
			H292.323z"/>
		<path fill="#00599D" d="M339.679,39.715c3.685,1.433,5.732,4.981,6.96,10.304c1.501,6.21,2.866,12.488,3.889,14.467h-10.372
			c-0.751-1.501-2.047-6.073-3.275-12.419c-1.365-6.756-3.48-8.871-8.257-8.871h-3.412v21.29h-10.031V12.692
			c3.48-0.614,8.393-1.092,13.511-1.092c6.619,0,19.994,0.819,19.994,14.876c0,6.414-4.094,11.123-9.007,13.034V39.715z
			 M329.375,35.689c5.732,0,9.212-3.344,9.212-8.325c0-6.756-5.05-8.052-8.734-8.052c-2.252,0-3.821,0.136-4.64,0.409v15.968
			H329.375z"/>
		<path fill="#00599D" d="M352.234,12.01h10.099v52.475h-10.099V12.01z"/>
		<path fill="#00599D" d="M399.795,18.288l-22.518,37.395v0.273H400v8.53h-35.757v-5.664l22.996-38.077v-0.273H366.29V12.01h33.505
			V18.288z"/>
	</g>
	<g>
		<path fill="#00599D" d="M96.97,94.402c0,10.284-5.008,15.598-12.463,15.598c-8.143,0-12.119-7.034-12.119-15.139
			c0-8.334,4.588-15.254,12.539-15.254C93.529,79.607,96.97,87.215,96.97,94.402z M79.46,94.747c-0.038,5.658,1.873,9.71,5.276,9.71
			c3.403,0,5.161-4.052,5.161-9.825c0-5.161-1.72-9.481-5.161-9.481C81.143,85.151,79.46,89.662,79.46,94.747z"/>
		<path fill="#00599D" d="M121.819,95.779c2.026,0.803,3.058,2.714,3.747,5.543c0.765,3.173,1.606,7.111,2.179,8.258h-6.958
			c-0.382-0.841-1.147-3.479-1.797-6.958c-0.65-3.593-1.682-4.549-3.938-4.549h-1.3v11.507h-6.69V80.449
			c2.064-0.344,4.932-0.612,7.99-0.612c3.938,0,11.66,0.42,11.66,8.525c0,3.479-2.179,6.193-4.893,7.263V95.779z M115.512,93.103
			c2.829,0,4.473-1.759,4.473-4.167c0-3.364-2.485-4.014-4.052-4.014c-1.07,0-1.797,0.077-2.179,0.191v7.99H115.512z"/>
		<path fill="#00599D" d="M155.347,85.915h-6.767v23.664h-6.728V85.915h-6.69v-5.888h20.185V85.915z"/>
		<path fill="#00599D" d="M187.919,94.402c0,10.284-5.008,15.598-12.463,15.598c-8.143,0-12.119-7.034-12.119-15.139
			c0-8.334,4.588-15.254,12.539-15.254C184.479,79.607,187.919,87.215,187.919,94.402z M170.41,94.747
			c-0.038,5.658,1.873,9.71,5.276,9.71c3.403,0,5.161-4.052,5.161-9.825c0-5.161-1.72-9.481-5.161-9.481
			C172.092,85.151,170.41,89.662,170.41,94.747z"/>
		<path fill="#00599D" d="M198.013,80.449c1.911-0.344,4.588-0.612,7.952-0.612c3.899,0,6.767,0.65,8.755,2.332
			c1.873,1.529,2.982,4.053,2.982,6.805c0,8.219-6.69,10.131-11.316,10.131c-0.65,0-1.223-0.038-1.682-0.076v10.551h-6.69V80.449z
			 M204.703,93.752c0.421,0.038,0.841,0.076,1.529,0.076c3.135,0,4.817-1.873,4.817-4.549c0-2.714-1.644-4.205-4.32-4.205
			c-0.918,0-1.644,0.115-2.026,0.229V93.752z"/>
		<path fill="#00599D" d="M244.385,109.58h-16.783V80.028h16.209v5.62h-9.481v5.926h8.984v5.505h-8.984v6.881h10.054V109.58z"/>
		<path fill="#00599D" d="M254.746,80.449c2.026-0.344,4.817-0.612,7.761-0.612c4.893,0,8.105,0.956,10.59,2.905
			c2.867,2.332,4.511,6.079,4.511,11.507c0,6.308-2.179,10.169-4.626,12.272c-2.638,2.255-6.652,3.326-11.775,3.326
			c-2.867,0-5.046-0.229-6.461-0.42V80.449z M261.436,104.419c0.42,0.076,1.07,0.076,1.606,0.076
			c4.396,0.038,7.531-2.905,7.531-10.207c0-6.155-2.829-9.213-7.072-9.213c-0.956,0-1.606,0.076-2.064,0.191V104.419z"/>
		<path fill="#00599D" d="M287.7,80.028h6.728v29.552H287.7V80.028z"/>
		<path fill="#00599D" d="M327.612,109.58h-6.958l-1.72-6.881h-6.805l-1.606,6.881h-6.805l7.799-29.552h8.525L327.612,109.58z
			 M318.131,97.614l-1.3-5.926c-0.382-1.759-0.879-4.397-1.262-6.193h-0.076c-0.382,1.797-0.879,4.511-1.223,6.193l-1.338,5.926
			H318.131z"/>
	</g>
</g>
</svg>
