<?xml version="1.0" encoding="utf-8"?>
<!-- Generator: Adobe Illustrator 17.0.0, SVG Export Plug-In . SVG Version: 6.00 Build 0)  -->
<!DOCTYPE svg PUBLIC "-//W3C//DTD SVG 1.1//EN" "http://www.w3.org/Graphics/SVG/1.1/DTD/svg11.dtd">
<svg version="1.1" id="Capa_1" xmlns="http://www.w3.org/2000/svg" xmlns:xlink="http://www.w3.org/1999/xlink" x="0px" y="0px"
	 width="194px" height="130px" viewBox="0 0 194 130" enable-background="new 0 0 194 130" xml:space="preserve">
<path fill="#00599D" d="M102.98,86.741c0,0.653-0.001,1.306,0,1.959c0.013,10.694,0.022,21.387,0.045,32.081
	c0.002,0.699-0.212,1.182-0.833,1.567c-3.313,2.054-6.733,3.906-10.456,5.082c-2.109,0.666-4.292,1.127-6.467,1.548
	c-5.167,1-10.409,1.117-15.642,0.971c-4.053-0.113-8.105-0.44-12.144-0.818c-3.807-0.357-7.565-1.119-11.232-2.187
	c-2.755-0.803-5.438-1.868-8.122-2.897c-3.716-1.424-7.138-3.428-10.446-5.61c-3.907-2.578-7.542-5.509-10.573-9.098
	c-1.977-2.341-3.912-4.737-5.65-7.257c-2.881-4.178-5.233-8.66-6.887-13.476c-0.766-2.23-1.512-4.473-2.135-6.746
	c-2.07-7.553-2.865-15.249-2.217-23.057c0.228-2.746,0.646-5.496,1.241-8.186c0.686-3.097,1.582-6.155,2.535-9.183
	c1.494-4.753,3.735-9.17,6.388-13.378c3.076-4.878,6.616-9.378,10.967-13.194c3.039-2.664,6.302-5.01,9.823-7.019
	c2.672-1.524,5.41-2.887,8.285-3.955c3.138-1.165,6.352-2.106,9.668-2.619c2.638-0.408,5.285-0.781,7.939-1.062
	c1.629-0.172,3.279-0.194,4.92-0.195c13.326-0.014,26.652-0.008,39.978-0.008c1.043,0,1.054,0.001,1.054,1.059
	c-0.003,8.955-0.01,17.909-0.019,26.864c-0.001,0.953-0.013,0.954-1,0.955c-8.908,0.002-17.815-0.039-26.723,0.028
	c-3.653,0.027-7.293,0.318-10.905,1.002c-3.148,0.596-6.208,1.416-9.095,2.798c-4.64,2.222-8.416,5.485-11.46,9.626
	c-1.639,2.23-2.836,4.677-3.76,7.269c-2.215,6.208-3.106,12.613-2.513,19.168c0.213,2.355,0.79,4.709,1.475,6.981
	c0.666,2.21,1.521,4.399,2.59,6.441c1.091,2.085,2.404,4.092,3.877,5.927c1.532,1.909,3.237,3.729,5.102,5.309
	c4.215,3.572,9.067,5.915,14.526,6.996c3.805,0.753,7.626,1.054,11.479,0.683c3.557-0.342,7.046-1.04,10.291-2.626
	c1.808-0.883,3.664-1.703,5.357-2.774c1.652-1.045,3.163-2.328,4.664-3.591c1.415-1.191,2.743-2.487,4.097-3.75
	c0.445-0.415,0.847-0.878,1.279-1.308c0.156-0.155,0.343-0.28,0.516-0.418C102.858,86.674,102.919,86.708,102.98,86.741z
	 M108.803,50.472c-0.165,0-0.333,0.022-0.493-0.004c-0.657-0.108-0.814,0.225-0.772,0.804c0.033,0.444,0.006,0.892,0.005,1.339
	c-0.024,21.009-0.064,71.581-0.096,75.858c-0.005,0.694,0.223,0.948,0.887,0.858c0.115-0.016,0.235-0.002,0.352-0.002
	c11.068-0.007,22.137-0.013,33.205-0.02c1.294-0.001,1.294-0.002,1.294-1.339c-0.004-13.724-0.075-46.15-0.116-48.639
	c-0.008-0.468,0.195-0.593,0.643-0.593c16.262,0.019,32.524,0.027,48.786,0.036c1.161,0.001,1.171-0.001,1.171-1.172
	c0.004-8.577,0.006-17.154,0.005-25.732c0-1.444-0.007-1.444-1.47-1.444c-13.889,0-27.777,0-41.666,0
	C150.539,50.439,122.715,50.472,108.803,50.472z M108.368,28.884c2.35,0,58.804,0.01,84.681,0.016c0.923,0,0.922,0.001,0.922-0.938
	c-0.001-4.419,0.082-8.839-0.031-13.255c-0.08-3.106-0.343-6.222-1.652-9.122c-0.821-1.82-2.165-3.134-3.952-4.012
	c-2.527-1.242-5.249-1.538-8-1.54c-24.02-0.021-48.04-0.013-72.06-0.032c-0.662-0.001-0.831,0.203-0.83,0.843
	c0.026,9.025,0.027,18.05,0.037,27.075c0,0.298,0.039,0.597,0.064,0.966C107.86,28.884,108.114,28.884,108.368,28.884z
	 M66.394,50.422c-0.586-0.002-0.757,0.211-0.756,0.784c0.019,8.718,0.019,17.436,0.024,26.154c0.001,1.029,0.075,1.098,1.133,1.097
	c11.726-0.014,23.452-0.028,35.178-0.042c0.955-0.001,0.954-0.003,0.955-0.97c0.002-8.718-0.003-17.437,0.02-26.155
	c0.002-0.688-0.212-0.864-0.882-0.861C96.167,50.453,71.023,50.44,66.394,50.422z"/>
</svg>
